<?xml version="1.0" encoding="UTF-8" standalone="no"?>
<!-- Created with Inkscape (http://www.inkscape.org/) -->

<svg
   width="160mm"
   height="160mm"
   viewBox="0 0 160 160"
   version="1.1"
   id="svg5"
   sodipodi:docname="logo.svg"
   inkscape:version="1.2.2 (b0a8486541, 2022-12-01)"
   xmlns:inkscape="http://www.inkscape.org/namespaces/inkscape"
   xmlns:sodipodi="http://sodipodi.sourceforge.net/DTD/sodipodi-0.dtd"
   xmlns="http://www.w3.org/2000/svg"
   xmlns:svg="http://www.w3.org/2000/svg">
  <sodipodi:namedview
     id="namedview15"
     pagecolor="#ffffff"
     bordercolor="#000000"
     borderopacity="0.25"
     inkscape:showpageshadow="2"
     inkscape:pageopacity="0.0"
     inkscape:pagecheckerboard="true"
     inkscape:deskcolor="#d1d1d1"
     inkscape:document-units="mm"
     showgrid="false"
     inkscape:zoom="1.0323759"
     inkscape:cx="302.2155"
     inkscape:cy="318.19805"
     inkscape:window-width="1536"
     inkscape:window-height="955"
     inkscape:window-x="0"
     inkscape:window-y="0"
     inkscape:window-maximized="1"
     inkscape:current-layer="g5222" />
  <defs
     id="defs2" />
  <g
     id="layer1">
    <g
       id="g9237"
       transform="matrix(2.4590951,0,0,2.4590951,8.5218303,-362.56255)">
      <g
         id="g1930"
         transform="matrix(1.0896198,0,0,1.0896208,-2.6049845,-16.12902)">
        <g
           id="g5222"
           style="fill:#ffffff;fill-opacity:1;stroke:#ffffff;stroke-width:0.581022;stroke-dasharray:none;stroke-opacity:1"
           transform="matrix(1.0498405,0,0,1.0498405,-27.318422,-18.100339)">
          <g
             aria-label="A"
             id="text306"
             style="font-size:19.7556px;font-family:'Alex Brush';-inkscape-font-specification:'Alex Brush';text-align:center;text-anchor:middle">
            <path
               d="m 50.417602,179.59647 1.916293,-0.0395 q 0.711202,0 0.711202,0.0988 0,0.25682 -2.884318,0.45438 -1.837271,3.59552 -1.837271,4.89939 0,0.90876 0.572913,0.90876 0.217311,0 0.533401,-0.27658 0.335845,-0.25682 0.395112,-0.25682 0.07902,0 0.07902,0.0988 -0.09878,0.3556 -0.612423,0.59267 -0.49389,0.23707 -0.849491,0.23707 -0.335845,0 -0.533401,-0.0395 -0.474135,-0.1778 -0.474135,-1.14583 0,-1.99531 1.521182,-5.07719 l -2.370672,0.0593 q -2.647251,2.58798 -5.314257,4.54379 -3.990631,2.90407 -6.242769,2.90407 -0.13829,0 -0.276579,-0.0198 -3.042362,-0.25683 -3.042362,-3.12139 0,-1.69898 1.066802,-3.59552 1.422403,-2.52871 3.891853,-4.30672 2.46945,-1.79776 4.425255,-1.79776 1.955804,0 1.955804,1.44216 0,0.96803 -0.592668,2.15336 -0.592668,1.18534 -1.205091,1.50143 -0.05927,0.0197 -0.13829,0.0197 -0.05927,0 -0.05927,-0.0395 l 0.651934,-1.0668 q 0.671691,-1.04705 0.671691,-1.83727 0,-0.79023 -0.355601,-1.26436 -0.335845,-0.49389 -1.086558,-0.49389 -1.540937,0 -3.694297,1.71874 -2.133605,1.71873 -3.259674,4.2277 -1.106314,2.50896 -1.106314,3.9116 0,2.11385 2.153361,2.11385 2.054582,0 5.571079,-2.64725 1.560692,-1.16558 5.077189,-4.4055 -0.691446,0.0395 -1.284114,0.13829 -1.264358,0.23707 -1.185336,-0.079 0.07902,-0.73096 0.750713,-0.73096 1.303869,0.15805 2.192871,0.15805 1.698982,-1.56069 5.07719,-5.1167 2.271894,-2.39043 2.765784,-2.39043 0.217311,0 0.217311,0.33585 0,0.33584 -0.1778,1.04704 -0.177801,0.7112 -0.395112,0.86925 -0.454379,0.31609 -0.849491,0.86925 -0.395112,0.5334 -1.126069,2.03482 -0.730957,1.48167 -1.244603,2.41019 z m 1.580448,-4.82037 -5.057434,4.74134 h 1.165581 q 0.414867,0.0198 1.027291,0.0198 0.572912,-1.12607 2.864562,-4.7611 z"
               id="path286" />
          </g>
          <g
             aria-label="N"
             id="text310"
             style="font-size:19.7556px;font-family:'Alex Brush';-inkscape-font-specification:'Alex Brush';text-align:center;text-anchor:middle">
            <path
               d="m 61.774589,203.29986 q -0.474134,0.73096 -0.474134,0.94827 0,0.23707 0.1778,0.31609 0,0.0395 -0.335845,0.23706 -0.31609,0.21732 -0.889002,0.21732 -0.572913,0 -0.572913,-0.29634 0,-0.51364 1.936049,-3.39796 1.955805,-2.90407 2.568228,-4.01039 1.343381,-2.41018 1.343381,-3.81283 0,-0.55316 -0.217312,-1.02729 -0.335845,-0.7112 -1.619959,-0.7112 -2.350916,0 -4.998167,2.15336 -2.015071,1.65947 -3.101629,3.43747 -0.98778,1.67923 -0.98778,3.00285 0,1.89654 1.758249,1.93605 0.07902,0 0.158044,0 2.331161,0 3.536253,-1.63971 0.474134,-0.65194 0.474134,-1.10631 0,-0.45438 -0.217311,-0.57292 -0.01976,-0.0197 -0.01976,-0.079 0,-0.0593 0.118534,-0.0593 0.513645,0 0.513645,0.67169 0,0.41487 -0.395112,1.12607 -0.395112,0.7112 -1.442159,1.34338 -1.027291,0.63218 -2.350916,0.63218 -1.323625,0 -2.094094,-0.77047 -0.770468,-0.77046 -0.770468,-2.07433 0,-3.08188 4.227698,-6.47984 1.066803,-0.84949 2.765784,-1.4224 1.718738,-0.57292 3.10163,-0.57292 1.402647,0 1.97556,0.53341 0.572912,0.51364 0.572912,1.44215 0,2.25214 -2.726273,6.38106 0.612424,-0.77047 1.995316,-1.9558 4.919144,-4.12892 8.455397,-5.43279 0.1778,-0.079 0.395112,-0.079 0.750712,0 0.948268,0.84949 0.09878,0.33584 -0.948268,1.40264 -2.46945,2.52872 -4.188188,5.53157 -1.718737,3.00285 -1.718737,4.30672 0,0.31609 0.118534,0.43463 0.118533,0.13829 0.375356,0.079 0.256823,-0.0395 1.066803,-0.39511 0.829735,-0.3556 1.086558,-0.41487 0.09878,0.0395 0.09878,0.0988 0,0.29633 -1.047047,0.82973 -1.027291,0.5334 -1.540937,0.5334 -0.513646,0 -0.651935,-0.1778 -0.355601,-0.49389 -0.355601,-1.2446 0,-1.69898 1.817516,-4.87963 1.16558,-1.99532 3.595519,-5.37353 -2.627495,0.23707 -6.795927,4.14868 -3.31894,3.14114 -4.721588,5.39328 z"
               id="path292" />
          </g>
          <g
             aria-label="&amp;"
             id="text435"
             style="font-size:11.2889px;font-family:'Alex Brush';-inkscape-font-specification:'Alex Brush';text-align:center;text-anchor:middle">
            <path
               d="m 54.195615,187.40396 q 0.632179,0 0.632179,0.25964 0,0.0677 -0.04516,0.11289 -0.146755,0.24836 -0.643467,0.24836 -0.485423,0 -0.880534,-0.29351 -0.609601,0.18062 -1.422402,0.76764 -1.264357,0.93698 -1.264357,1.84009 0,1.00472 1.365957,1.11761 0.270934,-1.67076 1.625602,-2.50614 0.440267,-0.28222 0.948268,-0.39511 0.508,-0.12418 0.688623,-0.15805 0.191911,-0.0452 0.632178,-0.11289 0.451556,-0.079 0.519289,-0.0903 1.049868,-0.18062 1.34338,-0.4064 0.3048,-0.22578 0.3048,-0.42898 0,-0.0564 -0.02258,-0.12417 -0.01129,-0.0677 0.03387,-0.079 0.04516,-0.0113 0.1016,0.0339 0.09031,0.12418 0.09031,0.3048 0,0.18062 -0.225778,0.44027 -0.338667,0.33867 -0.936979,0.47413 -0.225778,0.0565 -0.6096,0.13547 -0.372534,0.0677 -0.541868,0.11289 0.21449,0.2032 0.21449,0.6096 0,0.83538 -0.993424,1.63689 -1.095023,0.88053 -2.935114,0.88053 -0.01129,0.0903 -0.01129,0.28223 0,0.79022 0.51929,1.24177 0.530578,0.46285 1.33209,0.46285 0.282222,0 0.485423,-0.19191 0.2032,-0.18062 0.2032,-0.41769 0,-0.079 -0.04516,-0.18062 -0.04516,-0.1016 0.07902,-0.1016 0.135466,0 0.135466,0.29351 0,0.3048 -0.259644,0.53058 -0.259645,0.23706 -0.598312,0.23706 -0.880534,0 -1.467557,-0.48542 -0.666045,-0.53058 -0.666045,-1.38853 0,-0.19192 0.01129,-0.29352 -0.982135,-0.0903 -1.490135,-0.49671 -0.462845,-0.39511 -0.462845,-0.86924 0,-1.09503 1.670757,-2.08845 0.778934,-0.47413 1.524002,-0.7112 -0.316089,-0.34996 -0.316089,-0.9144 0,-0.29351 0.135466,-0.48542 0.372534,-0.53058 1.12889,-0.84667 0.891824,-0.39511 1.806224,-0.39511 1.207913,0 1.185335,0.75635 -0.02258,0.32738 -0.282223,0.57574 -0.248355,0.23706 -0.553156,0.23706 -0.3048,0 -0.3048,-0.15804 0,-0.11289 0.146756,-0.11289 l 0.191911,0.0339 q 0.158045,0 0.3048,-0.19191 0.158045,-0.19191 0.158045,-0.38383 0,-0.3048 -0.349956,-0.44026 -0.225778,-0.079 -0.428978,-0.079 -0.948268,0 -1.580446,0.39512 -0.632179,0.39511 -0.92569,0.88053 -0.169334,0.28222 -0.169334,0.58702 0,0.3048 0.135467,0.46285 0.440267,-0.12418 0.778934,-0.12418 z m 1.535291,1.78365 q 0,-0.49672 -0.428978,-0.49672 -0.135467,0 -0.553156,0.1016 -2.178758,0.81281 -2.540003,2.67547 0.248356,0 0.496712,-0.0339 1.456268,-0.15805 2.314224,-0.92569 0.711201,-0.64347 0.711201,-1.3208 z m -1.241779,-1.49014 q 0,-0.1016 -0.304801,-0.1016 -0.293511,0 -0.632178,0.0677 0.282223,0.18063 0.609601,0.18063 0.327378,0 0.327378,-0.14676 z"
               id="path289" />
          </g>
        </g>
        <circle
           style="fill:none;fill-opacity:1;fill-rule:evenodd;stroke:#fdffff;stroke-width:1.38832;stroke-dasharray:none;stroke-opacity:1"
           id="path6973"
           cx="29.066858"
           cy="179.96968"
           r="29.162376" />
      </g>
    </g>
  </g>
</svg>
